<mxfile host="app.diagrams.net" modified="2021-05-29T12:29:46.996Z" agent="5.0 (Windows NT 10.0; Win64; x64) AppleWebKit/537.36 (KHTML, like Gecko) Chrome/89.0.4389.128 Safari/537.36" etag="kK7GmVhCpiXEBXXKHrXX" version="14.7.2" type="github">
  <diagram id="C5RBs43oDa-KdzZeNtuy" name="Page-1">
    <mxGraphModel dx="1038" dy="547" grid="1" gridSize="10" guides="1" tooltips="1" connect="1" arrows="1" fold="1" page="1" pageScale="1" pageWidth="827" pageHeight="1169" math="0" shadow="0">
      <root>
        <mxCell id="WIyWlLk6GJQsqaUBKTNV-0" />
        <mxCell id="WIyWlLk6GJQsqaUBKTNV-1" parent="WIyWlLk6GJQsqaUBKTNV-0" />
        <mxCell id="GVEyoKOzwOx_ailyvAIY-4" style="edgeStyle=orthogonalEdgeStyle;rounded=0;orthogonalLoop=1;jettySize=auto;html=1;" edge="1" parent="WIyWlLk6GJQsqaUBKTNV-1" source="GVEyoKOzwOx_ailyvAIY-0" target="GVEyoKOzwOx_ailyvAIY-1">
          <mxGeometry relative="1" as="geometry" />
        </mxCell>
        <mxCell id="GVEyoKOzwOx_ailyvAIY-5" style="edgeStyle=orthogonalEdgeStyle;rounded=0;orthogonalLoop=1;jettySize=auto;html=1;entryX=0.5;entryY=0;entryDx=0;entryDy=0;" edge="1" parent="WIyWlLk6GJQsqaUBKTNV-1" source="GVEyoKOzwOx_ailyvAIY-0" target="GVEyoKOzwOx_ailyvAIY-2">
          <mxGeometry relative="1" as="geometry" />
        </mxCell>
        <mxCell id="GVEyoKOzwOx_ailyvAIY-6" style="edgeStyle=orthogonalEdgeStyle;rounded=0;orthogonalLoop=1;jettySize=auto;html=1;" edge="1" parent="WIyWlLk6GJQsqaUBKTNV-1" source="GVEyoKOzwOx_ailyvAIY-0" target="GVEyoKOzwOx_ailyvAIY-3">
          <mxGeometry relative="1" as="geometry" />
        </mxCell>
        <mxCell id="GVEyoKOzwOx_ailyvAIY-0" value="某一个入库批次的返利金额" style="rounded=0;whiteSpace=wrap;html=1;" vertex="1" parent="WIyWlLk6GJQsqaUBKTNV-1">
          <mxGeometry x="240" y="40" width="120" height="60" as="geometry" />
        </mxCell>
        <mxCell id="GVEyoKOzwOx_ailyvAIY-23" style="edgeStyle=orthogonalEdgeStyle;rounded=0;orthogonalLoop=1;jettySize=auto;html=1;entryX=0.5;entryY=0;entryDx=0;entryDy=0;" edge="1" parent="WIyWlLk6GJQsqaUBKTNV-1" source="GVEyoKOzwOx_ailyvAIY-1" target="GVEyoKOzwOx_ailyvAIY-22">
          <mxGeometry relative="1" as="geometry" />
        </mxCell>
        <mxCell id="GVEyoKOzwOx_ailyvAIY-1" value="具有当前供应商ysb_provider_id" style="rounded=0;whiteSpace=wrap;html=1;" vertex="1" parent="WIyWlLk6GJQsqaUBKTNV-1">
          <mxGeometry x="80" y="160" width="120" height="60" as="geometry" />
        </mxCell>
        <mxCell id="GVEyoKOzwOx_ailyvAIY-9" style="edgeStyle=orthogonalEdgeStyle;rounded=0;orthogonalLoop=1;jettySize=auto;html=1;entryX=0.5;entryY=0;entryDx=0;entryDy=0;" edge="1" parent="WIyWlLk6GJQsqaUBKTNV-1" source="GVEyoKOzwOx_ailyvAIY-2" target="GVEyoKOzwOx_ailyvAIY-7">
          <mxGeometry relative="1" as="geometry" />
        </mxCell>
        <mxCell id="GVEyoKOzwOx_ailyvAIY-2" value="返利明细类型为品种票折rebate_type=2" style="rounded=0;whiteSpace=wrap;html=1;" vertex="1" parent="WIyWlLk6GJQsqaUBKTNV-1">
          <mxGeometry x="240" y="160" width="120" height="60" as="geometry" />
        </mxCell>
        <mxCell id="GVEyoKOzwOx_ailyvAIY-10" style="edgeStyle=orthogonalEdgeStyle;rounded=0;orthogonalLoop=1;jettySize=auto;html=1;entryX=1;entryY=0.5;entryDx=0;entryDy=0;" edge="1" parent="WIyWlLk6GJQsqaUBKTNV-1" source="GVEyoKOzwOx_ailyvAIY-3" target="GVEyoKOzwOx_ailyvAIY-7">
          <mxGeometry relative="1" as="geometry">
            <Array as="points">
              <mxPoint x="460" y="700" />
            </Array>
          </mxGeometry>
        </mxCell>
        <mxCell id="GVEyoKOzwOx_ailyvAIY-3" value="入库批次记录具有入库单号/退库单号in_warehouse_no" style="rounded=0;whiteSpace=wrap;html=1;" vertex="1" parent="WIyWlLk6GJQsqaUBKTNV-1">
          <mxGeometry x="400" y="160" width="120" height="60" as="geometry" />
        </mxCell>
        <mxCell id="GVEyoKOzwOx_ailyvAIY-12" style="edgeStyle=orthogonalEdgeStyle;rounded=0;orthogonalLoop=1;jettySize=auto;html=1;entryX=0.5;entryY=0;entryDx=0;entryDy=0;" edge="1" parent="WIyWlLk6GJQsqaUBKTNV-1" source="GVEyoKOzwOx_ailyvAIY-7" target="GVEyoKOzwOx_ailyvAIY-11">
          <mxGeometry relative="1" as="geometry" />
        </mxCell>
        <mxCell id="GVEyoKOzwOx_ailyvAIY-7" value="关联查询返利表ts_rebate_receivable" style="rounded=0;whiteSpace=wrap;html=1;" vertex="1" parent="WIyWlLk6GJQsqaUBKTNV-1">
          <mxGeometry x="240" y="670" width="120" height="60" as="geometry" />
        </mxCell>
        <mxCell id="GVEyoKOzwOx_ailyvAIY-15" style="edgeStyle=orthogonalEdgeStyle;rounded=0;orthogonalLoop=1;jettySize=auto;html=1;entryX=0.5;entryY=0;entryDx=0;entryDy=0;" edge="1" parent="WIyWlLk6GJQsqaUBKTNV-1" source="GVEyoKOzwOx_ailyvAIY-11" target="GVEyoKOzwOx_ailyvAIY-14">
          <mxGeometry relative="1" as="geometry" />
        </mxCell>
        <mxCell id="GVEyoKOzwOx_ailyvAIY-11" value="查询出多条返利记录" style="rounded=0;whiteSpace=wrap;html=1;" vertex="1" parent="WIyWlLk6GJQsqaUBKTNV-1">
          <mxGeometry x="240" y="790" width="120" height="60" as="geometry" />
        </mxCell>
        <mxCell id="GVEyoKOzwOx_ailyvAIY-14" value="使用sum统计这部分剩余应收合计" style="rounded=0;whiteSpace=wrap;html=1;" vertex="1" parent="WIyWlLk6GJQsqaUBKTNV-1">
          <mxGeometry x="240" y="905" width="120" height="60" as="geometry" />
        </mxCell>
        <mxCell id="GVEyoKOzwOx_ailyvAIY-29" style="edgeStyle=orthogonalEdgeStyle;rounded=0;orthogonalLoop=1;jettySize=auto;html=1;entryX=0;entryY=0.5;entryDx=0;entryDy=0;" edge="1" parent="WIyWlLk6GJQsqaUBKTNV-1" source="GVEyoKOzwOx_ailyvAIY-19" target="GVEyoKOzwOx_ailyvAIY-7">
          <mxGeometry relative="1" as="geometry">
            <Array as="points">
              <mxPoint x="90" y="700" />
            </Array>
          </mxGeometry>
        </mxCell>
        <mxCell id="GVEyoKOzwOx_ailyvAIY-19" value="ysb_provider_id还需要加上集采品种的非集采公司ysb_provider_id" style="rounded=0;whiteSpace=wrap;html=1;" vertex="1" parent="WIyWlLk6GJQsqaUBKTNV-1">
          <mxGeometry x="30" y="525" width="120" height="60" as="geometry" />
        </mxCell>
        <mxCell id="GVEyoKOzwOx_ailyvAIY-24" style="edgeStyle=orthogonalEdgeStyle;rounded=0;orthogonalLoop=1;jettySize=auto;html=1;entryX=0.5;entryY=0;entryDx=0;entryDy=0;" edge="1" parent="WIyWlLk6GJQsqaUBKTNV-1" source="GVEyoKOzwOx_ailyvAIY-22" target="GVEyoKOzwOx_ailyvAIY-19">
          <mxGeometry relative="1" as="geometry" />
        </mxCell>
        <mxCell id="GVEyoKOzwOx_ailyvAIY-26" value="是" style="edgeLabel;html=1;align=center;verticalAlign=middle;resizable=0;points=[];" vertex="1" connectable="0" parent="GVEyoKOzwOx_ailyvAIY-24">
          <mxGeometry x="-0.3115" y="3" relative="1" as="geometry">
            <mxPoint as="offset" />
          </mxGeometry>
        </mxCell>
        <mxCell id="GVEyoKOzwOx_ailyvAIY-27" style="edgeStyle=orthogonalEdgeStyle;rounded=0;orthogonalLoop=1;jettySize=auto;html=1;entryX=0;entryY=0.5;entryDx=0;entryDy=0;" edge="1" parent="WIyWlLk6GJQsqaUBKTNV-1" source="GVEyoKOzwOx_ailyvAIY-22" target="GVEyoKOzwOx_ailyvAIY-7">
          <mxGeometry relative="1" as="geometry" />
        </mxCell>
        <mxCell id="GVEyoKOzwOx_ailyvAIY-28" value="否" style="edgeLabel;html=1;align=center;verticalAlign=middle;resizable=0;points=[];" vertex="1" connectable="0" parent="GVEyoKOzwOx_ailyvAIY-27">
          <mxGeometry x="-0.2053" y="-4" relative="1" as="geometry">
            <mxPoint as="offset" />
          </mxGeometry>
        </mxCell>
        <mxCell id="GVEyoKOzwOx_ailyvAIY-31" style="edgeStyle=orthogonalEdgeStyle;rounded=0;orthogonalLoop=1;jettySize=auto;html=1;entryX=0;entryY=0.5;entryDx=0;entryDy=0;dashed=1;" edge="1" parent="WIyWlLk6GJQsqaUBKTNV-1" source="GVEyoKOzwOx_ailyvAIY-22" target="GVEyoKOzwOx_ailyvAIY-30">
          <mxGeometry relative="1" as="geometry" />
        </mxCell>
        <mxCell id="GVEyoKOzwOx_ailyvAIY-22" value="&lt;span&gt;若该品种为集采品种&lt;/span&gt;" style="rhombus;whiteSpace=wrap;html=1;" vertex="1" parent="WIyWlLk6GJQsqaUBKTNV-1">
          <mxGeometry x="20" y="290" width="140" height="70" as="geometry" />
        </mxCell>
        <mxCell id="GVEyoKOzwOx_ailyvAIY-30" value="按照乐药编码关联查找focus表即可，focus是以乐药编码作为唯一键" style="rounded=0;whiteSpace=wrap;html=1;" vertex="1" parent="WIyWlLk6GJQsqaUBKTNV-1">
          <mxGeometry x="560" y="295" width="120" height="60" as="geometry" />
        </mxCell>
      </root>
    </mxGraphModel>
  </diagram>
</mxfile>
